<?xml version="1.0" encoding="UTF-8"?>
<svg id="Layer_1" data-name="Layer 1" xmlns="http://www.w3.org/2000/svg" xmlns:xlink="http://www.w3.org/1999/xlink" viewBox="0 0 63.49 53.81">
  <defs>
    <style>
      .cls-1 {
        clip-path: url(#clippath);
      }

      .cls-2 {
        fill: none;
      }

      .cls-2, .cls-3 {
        stroke-width: 0px;
      }

      .cls-3 {
        fill: #fcdfc3;
      }
    </style>
    <clipPath id="clippath">
      <rect class="cls-2" x="0" width="63.48" height="53.81"/>
    </clipPath>
  </defs>
  <g id="Group_25" data-name="Group 25">
    <g class="cls-1">
      <g id="Group_24" data-name="Group 24">
        <path id="Path_10" data-name="Path 10" class="cls-3" d="m31.48,53.81c3.63,0,7.26,0,10.88,0,1.79,0,3.59-.02,5.38-.03,1.62.04,3.23-.06,4.83-.31,3.42-.65,6.03-3.6,7.11-6.8.79-2.34.59-4.89.52-7.32-.16-5.44-.34-10.88-.51-16.31-.07-2.24-.14-4.47-.21-6.7l-2.11,2.77c2.91-.87,5.14-3.23,5.83-6.19.72-3.1-.13-6.35-2.28-8.7-2.02-2.22-4.76-3.65-7.73-4.03-3.56-.39-7.16.02-10.54,1.19-3.15,1.13-6.37,2.04-9.64,2.74-.22.04-.45.07-.67.1.12-.02.53-.06-.04,0-.36.04-.72.08-1.08.11-.9.08-1.81.11-2.71.11-.72,0-1.45-.02-2.17-.07-.45-.03-.9-.07-1.35-.12-.18-.02-.36-.04-.54-.06.52.07-.16-.03-.31-.05-3.38-.55-6.7-1.57-10.16-1.57-3.25-.07-6.46.75-9.28,2.36-1.52.9-2.79,2.17-3.69,3.69C.12,10.19-.2,12.06.12,13.88c.53,3.24,3.3,6.11,6.71,6.03l-2.87-2.88.16,15.55c.02,1.84.09,3.68.05,5.51-.19,2.59-.06,5.19.41,7.74.68,3.24,2.89,5.95,5.94,7.26,1.57.51,3.22.74,4.87.67,1.91.01,3.83.02,5.74.03,3.91.02,7.82.02,11.73,0,1.59-.03,2.85-1.34,2.82-2.93-.03-1.55-1.28-2.79-2.82-2.82-3.39,0-6.78,0-10.18,0-3.08,0-6.21.12-9.28-.12-.26-.02-.34.1.11.02-.15,0-.29-.04-.43-.08-.2-.04-.69-.09-.84-.24l.28.12c-.1-.04-.2-.09-.29-.15-.13-.07-.25-.16-.38-.23-.34-.19.32.32.05.03-.15-.16-.32-.3-.48-.46-.1-.1-.19-.22-.29-.32-.28-.28.27.42.06.09-.17-.26-.34-.51-.49-.78-.07-.12-.12-.24-.19-.36-.24-.44.03.05.05.14-.06-.31-.23-.63-.32-.94-.07-.25-.14-.51-.19-.77-.03-.16-.06-.33-.09-.49-.02-.12-.04-.54-.02-.11s0,0,0-.11c-.02-.17-.03-.33-.04-.5-.02-.33-.04-.67-.04-1-.02-1.11.02-2.22.06-3.33.06-1.79-.02-3.59-.04-5.39-.03-3.25-.07-6.5-.1-9.74-.02-2.1-.04-4.2-.07-6.3-.02-1.58-1.3-2.86-2.88-2.88-.11,0-.23,0-.34,0,.05-.04.73.18.27.03-.1-.03-.21-.06-.32-.09-.36-.09.11-.14.24.1-.01-.03-.7-.5-.26-.13.35.29.05.04-.02-.04-.1-.1-.19-.2-.29-.3-.27-.27.17-.02.14.18-.05-.1-.12-.2-.18-.29-.07-.12-.33-.7-.17-.28.18.47-.09-.3-.11-.4s-.04-.23-.08-.34c-.1-.29.03.72.02.15v-.7c0-.48-.18.64.02,0,.04-.11.07-.22.1-.33.05-.34-.24.46-.06.13.15-.27.29-.53.45-.8.21-.34.09.07-.09.1.04,0,.17-.2.2-.23.18-.2.38-.39.58-.58.53-.47-.28.16.14-.13.29-.2.58-.39.88-.56.21-.12.43-.23.66-.34.66-.31-.3.09.19-.09.57-.21,1.15-.39,1.74-.53.35-.09.71-.16,1.07-.22.14-.02.27-.04.4-.07-.51.09-.05,0,.05,0,.77-.08,1.55-.11,2.32-.1.68.02,1.36.07,2.03.15-.52-.07-.06,0,.04.01.18.03.36.06.53.09.4.07.8.15,1.2.23,1.38.28,2.75.6,4.14.83,6.09,1,12.34.48,18.18-1.52,1.36-.44,2.7-.91,4.07-1.32.65-.2,1.31-.38,1.97-.54.35-.08.7-.16,1.05-.23.18-.04.35-.07.53-.1.07-.01.78-.13.42-.07s.21-.02.28-.03c.18-.02.36-.03.53-.05.31-.02.62-.04.94-.05.36,0,.71,0,1.07.01.18,0,.35.03.53.04.55.03-.17-.05.16.01.6.1,1.19.24,1.77.42.13.04.26.09.39.14.21.07.4.03-.11-.05.3.1.58.24.84.42.27.15.53.33.8.5.06.04.36.24.04.02-.35-.24.12.11.19.17.23.2.45.42.67.65.09.1.18.21.27.31.24.25-.3-.46-.01-.01.17.26.33.51.47.78.05.09.28.47.07.12-.22-.36.04.12.08.23.09.28.14.57.22.85.1.36.01-.58-.03-.21,0,.16,0,.31.02.47,0,.12,0,.25,0,.37,0,.11-.06.66,0,.18.05-.47-.1.38-.14.53-.03.12-.08.24-.12.35-.13.45.04-.18.08-.17.01,0-.4.74-.44.81s-.12.15-.15.23c-.15.29.41-.43.05-.08-.09.08-.16.18-.25.26-.07.06-.13.12-.2.18-.12.1-.09.08.08-.05l.15-.11c-.07.05-.15.11-.22.15-.13.08-.26.15-.39.23-.44.28.15-.11.19-.06-.18.05-.35.1-.53.16-1.24.36-2.1,1.48-2.11,2.77.16,5.11.32,10.21.47,15.32.08,2.42.15,4.84.22,7.26.04,1.28.11,2.57.08,3.85,0,.28-.02.57-.04.85,0,.09-.09.4-.04.47-.03-.04.13-.72.02-.21-.06.27-.11.55-.18.82-.03.12-.07.24-.11.36-.03.1-.3.69-.09.28.22-.44-.08.14-.1.19-.06.12-.13.23-.19.35-.07.11-.14.23-.22.35-.02.03-.44.56-.15.22.25-.3-.07.07-.13.14-.13.15-.26.29-.4.42-.12.12-.24.22-.35.34-.54.52.44-.22-.15.12-.12.07-.26.14-.38.22-.53.33.44-.11-.12.04-.34.15-.7.23-1.06.25.56.1.27-.03,0,0-.22.02-.44.03-.66.04-.37.02-.73.02-1.1.02-1.86.01-3.71.02-5.57.03-4.01.02-8.01.02-12.02,0-1.59.03-2.85,1.34-2.82,2.93.03,1.55,1.28,2.79,2.82,2.82"/>
      </g>
    </g>
  </g>
</svg>